<?xml version="1.0" encoding="UTF-8"?>
<svg width="38px" height="38px" viewBox="0 0 38 38" version="1.1" xmlns="http://www.w3.org/2000/svg" xmlns:xlink="http://www.w3.org/1999/xlink">
    <!-- Generator: Sketch 57.1 (83088) - https://sketch.com -->
    <title>lime</title>
    <desc>Created with Sketch.</desc>
    <g id="Page-1" stroke="none" stroke-width="1" fill="none" fill-rule="evenodd">
        <g id="List" transform="translate(-49.000000, -11.000000)" fill-rule="nonzero">
            <g id="lime" transform="translate(49.000000, 11.000000)">
                <path d="M19,38 C13.9249219,38 9.15354687,36.0236289 5.56499609,32.4350039 C1.97629688,28.8464531 0,24.0750781 0,18.9999258 C0,13.9247734 1.97629688,9.15354687 5.56499609,5.56499609 C9.15369531,1.97644531 13.9249219,0 19,0 C24.0750039,0 28.8463789,1.97637109 32.4350781,5.56499609 C36.0236289,9.15354687 38,13.9249219 38,18.9999258 C38,24.0750039 36.0236289,28.8464531 32.4350039,32.4350039 C28.8463789,36.0236289 24.0750781,38 19,38 Z" id="Path" fill="#5EAC24"></path>
                <path d="M8.35488652,18.8199453 C8.35488652,13.7448672 10.3291683,8.97356641 13.9142084,5.38494141 C16.3933304,2.90336328 19.4374968,1.19336328 22.7561408,0.374136719 C21.5264779,0.1270625 20.2633023,0 18.9806271,0 C13.9107237,0 9.14421369,1.97637109 5.55932189,5.56499609 C1.97428179,9.15354687 0,13.9248477 0,19 C0,24.0751523 1.97428179,28.8465273 5.55932189,32.4350039 C9.14421369,36.0236289 13.9107237,38 18.9806271,38 C20.5446012,38 22.0795111,37.8113359 23.56,37.4458086 C19.9295102,36.7162383 16.5921821,34.9356563 13.9142084,32.2550234 C10.3292425,28.6663984 8.35488652,23.8950234 8.35488652,18.8199453 Z" id="Path" fill="#47821C"></path>
                <circle id="Oval" fill="#FFFFFF" cx="19" cy="19" r="16.72"></circle>
                <path d="M17.5360821,2.28 C9.0029404,2.93423078 2.28,10.1616737 2.28,18.9811057 C2.28,28.0416369 9.37571138,35.4207585 18.24,35.72 C16.609948,34.8383636 15.0997496,33.7070974 13.7564899,32.345133 C10.1879698,28.7269966 8.22278559,23.9164586 8.22278559,18.7995703 C8.22278559,13.6827568 10.1879698,8.87221876 13.7564899,5.25408237 C14.9042496,4.09026546 16.1739292,3.0950385 17.5360821,2.28 Z" id="Path" fill="#FFF5CC"></path>
                <g id="Group" transform="translate(6.840000, 3.800000)" fill="#FFE477">
                    <path d="M16.5035278,1.906384 C15.8764538,1.217748 14.4411232,0.020368 12.280988,0.020368 C10.1393483,0.020368 8.72710018,1.167892 8.10439115,1.82894 C8.08360212,1.855616 7.74994195,2.29938 8.01050761,2.946368 L11.9619023,12.754396 L11.9619023,12.754396 C11.9619023,12.754396 12.31428,13.633792 12.6692471,12.754396 L16.6083607,2.996148 C16.8522064,2.347032 16.5035278,1.906384 16.5035278,1.906384 Z" id="Path"></path>
                    <path d="M6.00159221,2.59464 C5.0841377,2.563176 3.24501168,2.759104 1.7175731,4.328276 C0.203155398,5.883996 -0.00554867257,7.721144 0.00917380531,8.640896 C0.0128729204,8.674868 0.0822683186,9.231036 0.711931681,9.499164 L10.2572021,13.564176 L10.2572021,13.564176 C10.2572021,13.564176 11.1116977,13.930116 10.7573225,13.050416 L6.82582903,3.288976 C6.55135469,2.653008 6.00159221,2.59464 6.00159221,2.59464 Z" id="Path"></path>
                </g>
                <path d="M9.1211952,14.44 C9.81590578,11.6650867 11.1040165,9.08148356 12.92,6.85014141 C12.8945792,6.84487809 12.8789242,6.84297109 12.8789242,6.84297109 C11.9543829,6.81139118 10.1012746,7.00804098 8.56216154,8.58299385 C7.03616888,10.1444452 6.82579509,11.9884375 6.84070465,12.9115016 C6.84443203,12.9455988 6.91435783,13.5038157 7.54890838,13.7729315 L9.1211952,14.44 Z" id="Path" fill="#FFDA44"></path>
                <path d="M5.65657652,14.6387146 C4.97868968,15.2898194 3.8,16.780155 3.8,19.0230712 C3.8,21.246783 4.9296119,22.7131515 5.58034137,23.3597241 C5.60660098,23.3813098 6.04343811,23.7277566 6.68032705,23.4571286 L16.3352581,19.3543081 L16.3352581,19.3543081 C16.3352581,19.3543081 17.2009273,18.9884265 16.3352581,18.6198563 L6.7292552,14.5298643 C6.09027148,14.2767508 5.65657652,14.6387146 5.65657652,14.6387146 Z" id="Path" fill="#FFE477"></path>
                <path d="M7.98422469,18.803066 C7.98422469,17.5866615 8.09139848,16.3874641 8.29855666,15.2160747 L6.70199337,14.5298643 C6.0689565,14.2767508 5.63929783,14.6387146 5.63929783,14.6387146 C4.96771991,15.2898194 3.8,16.780155 3.8,19.0230712 C3.8,21.246783 4.91909889,22.7131515 5.56377219,23.3597241 C5.5897874,23.3813098 6.022559,23.7277566 6.65352058,23.4571286 L8.36,22.7251351 C8.11178077,21.4478911 7.98422469,20.1356185 7.98422469,18.803066 Z" id="Path" fill="#FFDA44"></path>
                <path d="M6.84285088,25.2746987 C6.81254875,26.1756491 7.00124172,27.9816911 8.51246892,29.4816526 C10.0107409,30.9688275 11.7800485,31.1737772 12.6658369,31.1593196 C12.6985544,31.155687 13.2341848,31.08754 13.4924116,30.4692036 L17.4073149,21.0956428 L17.4073149,21.0956428 C17.4073149,21.0956428 17.7597419,20.2565188 16.9125266,20.6045191 L7.51154714,24.465289 C6.89891714,24.7347532 6.84285088,25.2746987 6.84285088,25.2746987 Z" id="Path" fill="#FFE477"></path>
                <path d="M12.590615,31.1592913 C12.6069434,31.1574162 12.7497804,31.1382902 12.92,31.0380104 C11.1083463,28.8495549 9.81573235,26.3024322 9.10595426,23.56 L7.50295686,24.2485332 C6.89830164,24.5267216 6.8428141,25.0841485 6.8428141,25.0841485 C6.81290285,26.0142683 6.9991618,27.8787831 8.49089513,29.4273078 C9.96962357,30.9625568 11.7162528,31.174292 12.590615,31.1592913 Z" id="Path" fill="#FFDA44"></path>
                <g id="Group" transform="translate(14.440000, 6.840000)" fill="#FFE477">
                    <path d="M0.250361538,25.4848682 C0.869761538,26.1622151 2.28752692,27.3399659 4.42122692,27.3399659 C6.53665769,27.3399659 7.93162308,26.2112538 8.54671154,25.5611174 C8.56724615,25.5348787 8.89682308,25.0983895 8.63937308,24.4620079 L4.73633462,14.8147672 L4.73633462,14.8147672 C4.73633462,14.8147672 4.38826923,13.9497875 4.03764615,14.8147672 L0.146738462,24.4130439 C-0.0939038462,25.0514439 0.250361538,25.4848682 0.250361538,25.4848682 Z" id="Path"></path>
                    <path d="M10.5873115,24.8078951 C11.4935385,24.8388433 13.3101577,24.6461272 14.8189038,23.1026793 C16.3147885,21.572463 16.5209385,19.7654321 16.5063962,18.860758 C16.5027423,18.827343 16.4341962,18.2802925 15.8122385,18.01656 L6.38378077,14.0181875 L6.38378077,14.0181875 C6.38378077,14.0181875 5.53974231,13.6582466 5.88978077,14.5235252 L9.77316154,24.1249416 C10.04435,24.7504839 10.5873115,24.8078951 10.5873115,24.8078951 Z" id="Path"></path>
                    <path d="M17.1667192,16.6679961 C17.8288692,16.0343803 18.9801962,14.5840761 18.9801962,12.4014059 C18.9801962,10.2374243 17.8768077,8.81044328 17.2412577,8.18123803 C17.2156077,8.16023213 16.7889115,7.82309115 16.1668077,8.08637508 L6.73601154,12.0789915 L6.73601154,12.0789915 C6.73601154,12.0789915 5.89043846,12.4350452 6.73601154,12.7937154 L16.1189423,16.7739226 C16.7430923,17.0201626 17.1667192,16.6679961 17.1667192,16.6679961 Z" id="Path"></path>
                    <path d="M16.50435,6.06323016 C16.5346038,5.13620459 16.3462115,3.27789246 14.8373923,1.73451934 C13.3415077,0.204302951 11.5750192,-0.00657836066 10.6906423,0.00829770492 C10.6579769,0.0120354098 10.1232,0.0821547541 9.86538462,0.718386885 L5.95671923,10.3632354 L5.95671923,10.3632354 C5.95671923,10.3632354 5.60485385,11.2266452 6.45071923,10.8685731 L15.8367192,6.89606557 C16.4482269,6.61880262 16.50435,6.06323016 16.50435,6.06323016 Z" id="Path"></path>
                </g>
            </g>
        </g>
    </g>
</svg>