<?xml version="1.0" encoding="UTF-8"?>
<svg width="32px" height="32px" viewBox="0 0 32 32" version="1.1" xmlns="http://www.w3.org/2000/svg" xmlns:xlink="http://www.w3.org/1999/xlink">
    <!-- Generator: Sketch 57.1 (83088) - https://sketch.com -->
    <title>link</title>
    <desc>Created with Sketch.</desc>
    <g id="Page-1" stroke="none" stroke-width="1" fill="none" fill-rule="evenodd">
        <g id="List" transform="translate(-865.000000, -200.000000)" fill="#C7EA46" fill-rule="nonzero">
            <g id="Group-3" transform="translate(657.000000, 184.000000)">
                <g id="link" transform="translate(208.000000, 16.000000)">
                    <path d="M9.71743212,13.2307697 C12.3817506,10.648567 16.7007301,10.648567 19.3650485,13.2307697 C19.897925,13.7472226 19.897925,14.5846067 19.3650485,15.1010596 C18.832172,15.6175126 17.9681587,15.6175126 17.4352822,15.1010596 C15.8367807,13.5517628 13.2457,13.5517628 11.6471985,15.1010596 L11.6471985,15.1010596 L3.9279412,22.5824053 C2.32943969,24.1316401 2.32943969,26.6428623 3.92826102,28.1924071 C5.52676253,29.7426338 8.11758738,29.7426338 9.71743212,28.1920972 L9.71743212,28.1920972 L13.5763891,24.4520753 C14.1092656,23.9356223 14.973343,23.9355603 15.5062194,24.4520133 C16.0390959,24.9684662 16.0390959,25.8058502 15.5062194,26.3223032 L15.5062194,26.3223032 L11.6472624,30.0623251 C8.9815368,32.6458916 4.66223744,32.6458916 1.99823883,30.0623251 C-0.666079609,27.4801224 -0.666079609,23.2942561 1.99823883,20.7120533 L1.99823883,20.7120533 Z M20.7900327,1.95424619 C23.3543196,-0.651415398 27.5124979,-0.651415398 30.0767848,1.95424619 C32.6410717,4.55990779 32.6410717,8.78386451 30.0767848,11.3895261 L30.0767848,11.3895261 L21.9053442,19.6928126 C19.3410573,22.2984742 15.1842333,22.2984742 12.6199464,19.6928126 C12.1070767,19.1716678 12.1070767,18.3266763 12.6199464,17.8055315 C13.1328161,17.2843866 13.9643902,17.2843866 14.4772599,17.8055315 C16.0157458,19.3689034 18.5094832,19.3689034 20.0480307,17.8055315 L20.0480307,17.8055315 L28.2194713,9.50218237 C29.7579573,7.93887299 29.7579573,5.40483675 28.2194713,3.84152737 C26.6809238,2.27815544 24.1858321,2.27815544 22.6473462,3.84152737 L22.6473462,3.84152737 L18.1912713,8.36950089 C17.6784016,8.89064571 16.8468275,8.89064571 16.3339578,8.36950089 C15.8210881,7.84835606 15.8210881,7.00336454 16.3339578,6.48221971 L16.3339578,6.48221971 Z"></path>
                </g>
            </g>
        </g>
    </g>
</svg>